<?xml version="1.0" standalone="no"?>
<!DOCTYPE svg PUBLIC "-//W3C//DTD SVG 20010904//EN"
 "http://www.w3.org/TR/2001/REC-SVG-20010904/DTD/svg10.dtd">
<svg version="1.0" xmlns="http://www.w3.org/2000/svg"
 width="2048.000000pt" height="2048.000000pt" viewBox="0 0 2048.000000 2048.000000"
 preserveAspectRatio="xMidYMid meet">

<g transform="translate(0.000000,2048.000000) scale(0.100000,-0.100000)"
fill="#000000" stroke="none">
<path d="M10598 18183 l5 -578 -24 -11 c-13 -5 -60 -9 -104 -8 -44 1 -260 3
-480 4 -220 1 -392 4 -382 7 16 4 17 40 17 579 l0 574 -47 0 c-192 0 -841 -91
-1188 -166 -796 -173 -1424 -399 -2115 -763 -506 -267 -978 -572 -1345 -870
-781 -635 -1274 -1178 -1832 -2016 -598 -899 -1048 -1977 -1288 -3090 -76
-351 -132 -814 -160 -1322 l-7 -113 624 0 624 0 12 178 c35 512 104 956 227
1457 59 243 150 522 289 888 44 115 205 475 283 632 177 357 546 943 686 1090
10 11 40 47 65 80 127 165 528 612 699 780 203 198 272 260 294 265 13 3 28
16 34 28 5 12 14 20 20 18 18 -6 44 14 39 29 -4 11 -2 13 9 9 8 -3 26 5 40 18
14 13 58 48 97 78 40 30 87 67 104 81 17 14 81 63 141 109 61 46 109 87 108
91 -2 5 4 6 12 3 8 -4 15 -2 15 4 0 5 8 12 18 15 9 4 71 45 137 92 66 47 130
90 142 95 13 5 58 34 102 64 44 30 83 51 87 48 4 -4 4 1 1 10 -4 12 -2 15 9
11 8 -3 25 4 37 15 12 11 33 23 46 27 14 4 33 16 44 25 10 10 25 16 31 14 7
-3 19 2 26 11 7 8 18 15 24 15 6 0 45 17 87 38 41 22 111 57 154 80 105 53
190 92 202 92 6 0 16 6 22 14 7 8 25 18 41 21 16 4 46 14 67 24 75 36 109 50
158 66 28 9 68 24 90 34 68 31 343 121 372 121 7 0 13 4 13 9 0 6 8 10 18 9
18 0 67 15 117 38 17 7 48 16 70 20 22 3 49 12 60 19 11 6 46 15 77 18 65 8
231 44 270 59 15 5 44 11 65 13 34 3 114 14 213 30 19 4 71 10 115 15 44 5
145 17 225 27 121 14 248 18 780 19 349 1 669 -2 710 -7 41 -5 107 -11 145
-14 75 -5 206 -20 320 -37 39 -5 99 -13 135 -18 36 -5 146 -24 245 -44 99 -19
198 -38 220 -41 22 -4 63 -13 90 -21 28 -8 109 -30 180 -50 72 -20 157 -43
190 -50 33 -8 69 -18 80 -23 11 -5 88 -30 170 -56 83 -26 164 -53 180 -60 17
-7 48 -18 70 -25 22 -6 47 -14 55 -17 20 -8 21 -8 55 -18 17 -4 39 -14 50 -21
11 -8 25 -14 33 -14 7 0 32 -9 54 -20 23 -11 48 -20 55 -20 14 0 85 -30 144
-61 20 -10 42 -19 49 -19 7 0 34 -11 62 -25 27 -14 56 -25 64 -25 8 0 14 -4
14 -8 0 -12 71 -33 84 -25 6 3 8 3 4 -2 -8 -8 125 -74 150 -75 6 0 12 -5 12
-11 0 -6 9 -8 23 -4 17 5 18 4 7 -4 -12 -8 -11 -11 5 -16 58 -19 82 -30 97
-43 10 -8 24 -12 33 -8 9 3 14 2 11 -3 -3 -5 2 -11 12 -15 9 -3 31 -14 47 -25
17 -10 57 -34 90 -51 33 -18 62 -36 65 -40 4 -6 156 -86 177 -93 5 -1 7 -5 6
-9 -2 -5 5 -8 15 -8 11 0 29 -8 40 -19 21 -18 22 -28 28 -350 4 -182 4 -331 0
-331 -3 0 -43 25 -87 55 -269 184 -788 446 -1209 610 -698 272 -1546 461
-2365 527 -250 20 -972 17 -1215 -5 -501 -46 -964 -126 -1355 -233 -71 -19
-155 -42 -185 -50 -145 -39 -634 -204 -789 -265 -450 -180 -855 -383 -1221
-615 -407 -257 -837 -656 -1207 -1119 -570 -715 -974 -1522 -1234 -2470 -263
-956 -319 -2200 -148 -3265 150 -935 481 -1829 935 -2528 30 -45 80 -121 111
-170 75 -115 285 -394 333 -442 3 -3 34 -39 70 -80 137 -159 358 -370 566
-541 170 -140 532 -396 669 -473 95 -54 154 -94 147 -101 -4 -5 -2 -5 5 -1 15
8 76 -28 65 -39 -4 -5 -2 -5 5 -1 14 8 121 -47 145 -75 17 -20 34 -26 22 -8
-5 9 28 -3 44 -16 1 -1 -12 -2 -30 -3 -18 0 -38 4 -45 10 -7 6 -22 8 -33 5
-11 -3 -18 -1 -15 3 8 13 -35 39 -75 46 -19 4 -40 11 -46 15 -6 5 -18 7 -26 4
-8 -3 -23 3 -33 15 -12 13 -31 20 -56 20 -46 0 -72 31 -42 49 10 6 13 11 6 11
-6 0 -15 -5 -18 -10 -10 -16 -28 -12 -21 5 4 12 2 13 -14 3 -16 -11 -22 -9
-34 7 -12 16 -17 17 -27 8 -10 -10 -18 -6 -40 17 -33 34 -61 50 -88 50 -11 0
-26 7 -35 15 -8 8 -32 15 -55 15 -34 0 -41 -3 -41 -19 0 -11 -3 -26 -6 -35 -4
-10 -1 -16 9 -16 8 0 27 -13 40 -30 14 -16 30 -30 36 -30 6 0 11 -9 11 -20 0
-11 -4 -20 -10 -20 -5 0 -10 -9 -10 -20 0 -23 25 -27 34 -5 9 23 39 19 33 -5
-3 -10 1 -24 9 -31 8 -6 14 -17 14 -24 0 -7 10 -15 23 -19 15 -4 18 -9 10 -14
-8 -5 -9 -13 -3 -22 8 -12 10 -12 16 3 7 19 28 24 21 5 -6 -18 11 -48 27 -48
8 0 19 -7 26 -15 7 -9 18 -14 24 -12 6 3 12 -6 12 -19 1 -14 -2 -21 -8 -18 -6
4 -9 1 -6 -7 3 -8 13 -15 24 -17 41 -7 50 -14 29 -22 -11 -5 -14 -9 -7 -9 7
-1 22 4 33 9 15 8 19 7 19 -4 0 -8 12 -27 26 -41 21 -21 29 -24 40 -14 13 10
15 8 12 -12 -2 -13 -8 -31 -13 -39 -7 -13 -6 -13 7 -2 13 10 22 10 52 -5 21
-11 34 -23 31 -31 -3 -7 -1 -11 4 -7 5 3 12 -1 15 -7 5 -10 7 -10 12 0 7 16
25 16 21 0 -1 -7 18 -23 43 -35 25 -12 44 -27 42 -34 -2 -7 4 -9 13 -5 9 3 13
2 10 -4 -7 -11 63 -43 76 -34 5 3 9 -4 9 -14 0 -24 19 -41 51 -44 13 -2 26 -5
29 -8 3 -3 24 -20 47 -38 41 -31 59 -40 49 -23 -3 4 8 8 23 7 30 -1 33 -16 3
-16 -13 0 -12 -4 7 -19 14 -10 31 -16 39 -13 8 3 20 -1 26 -9 6 -9 19 -18 29
-22 10 -4 16 -11 12 -16 -3 -6 10 -13 30 -17 19 -3 38 -10 41 -15 3 -5 12 -9
20 -9 9 0 22 -7 30 -15 14 -13 13 -15 -3 -16 -11 0 -13 -3 -5 -6 7 -3 20 -2
30 3 9 4 28 9 42 11 24 4 24 4 5 -11 -19 -15 -19 -15 8 -16 15 0 27 -4 27 -10
0 -5 6 -10 14 -10 8 0 21 -6 28 -13 18 -18 51 -30 42 -16 -4 7 -1 10 7 7 8 -3
13 -11 11 -18 -2 -8 5 -10 22 -6 30 7 59 -2 53 -18 -3 -7 14 -12 45 -14 28 -1
69 -9 91 -17 56 -20 107 -20 107 0 0 11 11 15 40 15 29 0 40 -4 40 -15 0 -9
-10 -15 -26 -15 -26 0 -54 -20 -54 -39 0 -17 17 -13 24 5 5 13 15 15 42 11 25
-4 37 -2 41 9 3 7 16 14 29 14 20 0 24 5 24 30 0 28 2 30 20 20 11 -6 25 -8
31 -4 6 4 51 6 100 5 75 -2 89 1 89 13 0 9 -5 16 -11 16 -5 0 -7 5 -3 11 4 8
9 7 14 -2 11 -16 191 -13 202 3 9 15 111 14 116 -1 5 -16 42 -14 42 3 0 18 31
30 40 16 10 -16 80 -31 80 -17 0 7 4 7 12 -1 7 -7 40 -12 79 -12 37 0 79 -4
93 -10 14 -5 45 -11 68 -14 24 -2 50 -6 58 -9 20 -7 293 -34 350 -35 25 0 76
-2 113 -4 53 -2 71 0 78 12 7 12 8 12 9 -3 0 -17 7 -18 68 -14 37 3 74 1 82
-3 8 -4 38 -4 65 1 l50 7 -47 -1 c-26 0 -50 2 -54 6 -4 4 35 7 87 6 66 -1 87
-4 69 -10 -18 -6 -13 -7 20 -3 25 3 53 8 63 10 12 4 17 0 17 -15 0 -18 6 -21
40 -21 27 0 40 4 40 14 0 9 12 13 40 12 25 0 40 -5 40 -13 0 -17 77 -17 82 0
4 9 60 14 214 19 115 3 268 11 339 17 228 19 458 42 465 46 3 2 46 9 96 15
209 27 571 96 809 156 538 135 1052 326 1540 572 385 195 541 286 834 485 79
54 148 99 153 100 5 1 8 -162 8 -363 l0 -365 -31 -25 c-81 -64 -420 -271 -644
-393 -778 -424 -1781 -722 -2760 -821 l-220 -22 -3 -612 -2 -612 37 0 c21 0
137 9 258 20 709 64 1278 185 1985 419 535 178 952 365 1449 648 387 222 613
372 1006 673 518 397 950 808 1366 1300 532 629 881 1165 1221 1875 359 751
591 1497 718 2315 44 282 98 815 84 829 -3 3 -284 6 -625 6 l-619 0 4 335 c5
360 1 440 -18 440 -9 0 -13 26 -15 88 -2 48 -6 119 -10 157 -8 64 -8 66 -11
25 -3 -38 -5 -33 -10 30 l-6 75 -4 -75 c-3 -71 -3 -73 -11 -30 -6 41 -4 -36 5
-162 2 -21 0 -38 -4 -38 -4 0 -12 -46 -19 -102 -6 -57 -16 -136 -21 -177 -5
-41 -12 -136 -15 -210 -3 -75 -7 -147 -9 -161 -16 -116 -19 -140 -32 -330 -8
-126 -11 -147 -18 -159 -4 -6 -4 -15 -1 -21 3 -5 3 -15 -1 -22 -4 -7 -9 -26
-11 -43 -10 -91 -13 -117 -18 -190 -11 -137 -39 -314 -59 -365 -7 -19 -17 -75
-21 -125 -4 -49 -11 -95 -17 -102 -5 -6 -12 -38 -15 -70 -3 -32 -14 -85 -24
-117 -11 -33 -19 -72 -19 -87 0 -16 -9 -51 -20 -79 -11 -28 -20 -65 -20 -83 0
-18 -7 -45 -15 -61 -8 -15 -15 -35 -15 -42 0 -8 -5 -14 -11 -14 -6 0 -9 -6 -6
-12 2 -7 0 -24 -5 -37 -6 -17 -5 -27 4 -33 10 -7 10 -11 -3 -21 -19 -14 -36
-97 -21 -97 5 0 12 -9 15 -20 4 -15 0 -20 -13 -20 -11 0 -22 -5 -25 -10 -10
-16 5 -50 21 -50 16 0 17 -4 5 -28 -28 -55 -33 -74 -28 -100 4 -22 2 -32 -9
-36 -12 -4 -14 -14 -9 -36 6 -29 -8 -43 -18 -17 -3 6 -3 -2 0 -20 4 -25 1 -33
-17 -43 -15 -8 -19 -15 -11 -19 12 -8 4 -39 -31 -119 -10 -24 -26 -62 -35 -85
-17 -42 -96 -205 -223 -457 -37 -74 -95 -182 -130 -240 -35 -58 -71 -118 -80
-135 -92 -161 -320 -492 -478 -695 -64 -82 -290 -350 -341 -405 -228 -243
-350 -368 -446 -455 -44 -41 -105 -97 -135 -125 -142 -132 -488 -415 -508
-415 -12 0 -3 763 9 771 16 9 151 115 249 194 335 270 762 697 1013 1012 159
200 361 510 498 762 303 562 556 1316 668 1996 78 474 101 760 101 1282 0 382
-8 555 -41 848 -69 624 -194 1155 -392 1666 -210 542 -528 1101 -880 1542
-315 396 -775 844 -1159 1130 l-38 28 0 288 c0 159 3 302 6 319 6 27 8 29 25
19 11 -7 19 -17 19 -23 0 -7 6 -11 14 -10 7 0 34 -18 59 -41 24 -23 48 -39 52
-35 5 4 5 2 2 -4 -7 -12 74 -84 94 -84 7 0 9 -3 6 -6 -9 -10 41 -46 53 -39 6
4 7 -1 3 -11 -4 -11 -2 -15 8 -12 7 2 24 -8 37 -24 13 -15 29 -25 35 -21 7 3
9 2 4 -2 -9 -10 21 -45 39 -45 7 0 18 -8 23 -17 7 -12 10 -14 11 -4 0 11 3 11
15 1 13 -11 13 -15 3 -21 -9 -6 -5 -9 11 -9 17 0 42 -18 78 -56 29 -31 53 -53
53 -48 0 5 4 4 8 -1 12 -18 96 -80 107 -80 5 0 10 -5 10 -10 0 -6 10 -21 23
-35 12 -13 20 -30 17 -38 -3 -7 0 -10 6 -7 6 4 19 -1 30 -11 10 -9 22 -14 26
-11 3 4 12 2 20 -4 11 -10 11 -15 1 -27 -11 -13 -10 -15 5 -9 14 5 32 -6 68
-41 27 -26 49 -52 49 -58 0 -7 7 -14 15 -18 8 -3 15 -13 15 -21 0 -9 5 -13 10
-10 6 3 10 -2 10 -11 0 -10 3 -15 6 -12 9 10 55 -42 48 -54 -4 -6 -3 -8 3 -5
12 8 83 -69 83 -89 0 -8 5 -13 12 -11 7 1 20 -14 30 -33 10 -19 21 -34 24 -32
7 4 109 -122 234 -288 97 -129 226 -318 305 -448 236 -386 366 -633 562 -1070
39 -87 133 -331 133 -344 0 -7 7 -25 14 -40 39 -74 186 -546 240 -768 97 -404
185 -1040 203 -1472 l6 -158 566 0 c311 0 590 3 619 6 l52 7 0 91 c-1 677
-176 1628 -445 2414 -225 661 -462 1173 -808 1747 -429 712 -1082 1484 -1720
2033 -346 298 -623 503 -1000 740 -817 515 -1567 835 -2502 1069 -539 134
-947 200 -1541 249 l-81 6 5 -579z m-1031 -599 c-3 -3 -12 -4 -19 -1 -8 3 -5
6 6 6 11 1 17 -2 13 -5z m1071 -1 c-10 -2 -26 -2 -35 0 -10 3 -2 5 17 5 19 0
27 -2 18 -5z m77 -13 c-27 -12 -35 -12 -35 0 0 6 12 10 28 9 24 0 25 -1 7 -9z
m-315 -980 c240 -14 623 -53 780 -80 30 -5 100 -17 155 -25 193 -31 683 -143
900 -207 738 -216 1376 -509 1899 -873 65 -44 117 -88 120 -100 3 -11 6 -156
6 -323 l0 -303 -92 82 c-310 274 -693 526 -1133 747 -656 329 -1240 516 -1945
621 -298 44 -473 59 -825 67 -472 11 -903 -26 -1415 -122 -298 -56 -829 -203
-885 -245 -6 -4 -93 -35 -195 -69 -248 -83 -396 -143 -635 -260 -795 -387
-1694 -1185 -2200 -1950 -474 -717 -771 -1506 -900 -2395 -45 -306 -57 -477
-62 -874 -7 -508 10 -781 73 -1145 39 -230 118 -583 165 -731 5 -16 22 -75 38
-130 135 -460 376 -981 678 -1463 46 -73 80 -138 77 -144 -4 -7 -3 -8 4 -4 7
4 31 -23 61 -66 28 -40 61 -86 73 -103 12 -16 15 -24 7 -18 -9 7 -19 10 -23 6
-4 -4 -4 0 -1 9 4 11 -1 20 -14 27 -11 6 -23 20 -26 31 -3 11 -10 20 -15 20
-5 0 -7 -7 -4 -15 4 -8 1 -15 -6 -15 -6 0 -9 4 -6 9 3 5 -7 23 -23 40 -16 17
-31 38 -35 46 -3 9 -11 13 -17 10 -6 -4 -13 2 -16 13 -3 11 -11 23 -19 26 -8
3 -14 10 -14 16 0 6 -7 22 -16 36 -13 19 -20 22 -30 13 -11 -9 -16 -5 -24 17
-15 44 -26 59 -41 59 -8 0 -17 14 -20 30 -6 27 -7 25 -8 -12 -1 -31 3 -43 13
-43 15 0 30 -32 47 -105 7 -27 15 -52 19 -55 7 -6 30 -57 50 -110 7 -19 28
-67 47 -107 18 -40 33 -78 33 -86 0 -7 9 -19 20 -27 11 -8 20 -22 20 -32 0
-10 9 -32 20 -50 11 -18 20 -39 20 -47 0 -7 15 -27 33 -45 49 -46 87 -102 87
-126 0 -12 14 -33 30 -47 19 -16 29 -31 25 -42 -3 -9 6 -28 21 -45 21 -22 24
-30 14 -36 -10 -6 -5 -15 18 -35 35 -29 41 -45 17 -45 -11 0 -15 -11 -15 -40
0 -36 3 -40 25 -40 23 0 25 -4 25 -40 0 -39 1 -40 35 -40 34 0 35 -1 35 -39 0
-23 -5 -41 -12 -44 -10 -3 -8 -9 4 -24 20 -22 24 -49 8 -55 -14 -4 11 -58 28
-58 7 0 17 -11 22 -25 5 -14 17 -28 25 -32 9 -3 15 -15 14 -27 -3 -39 1 -46
22 -46 14 0 25 -12 36 -37 9 -21 18 -32 20 -25 7 20 23 14 55 -20 16 -18 27
-39 25 -48 -2 -10 1 -17 7 -17 44 1 76 -5 76 -13 0 -5 -7 -10 -15 -10 -22 0
-18 -17 6 -23 12 -3 18 -10 14 -16 -3 -6 1 -11 9 -11 23 0 66 -22 66 -34 1
-23 48 -69 64 -63 9 4 16 2 16 -3 0 -5 9 -12 20 -15 11 -3 20 -13 20 -21 0 -8
9 -14 20 -14 11 0 20 -7 20 -15 0 -8 14 -21 30 -30 16 -9 30 -22 30 -30 0 -7
5 -17 12 -21 7 -5 9 -2 4 7 -4 8 2 4 13 -9 11 -13 25 -20 31 -17 6 4 18 -1 25
-11 8 -11 15 -15 15 -10 0 5 6 3 14 -4 8 -6 13 -17 10 -24 -5 -13 24 -31 34
-21 3 3 0 5 -7 5 -7 0 -9 5 -6 10 5 8 11 7 21 -1 7 -6 12 -15 9 -19 -2 -4 16
-16 41 -26 27 -11 43 -23 40 -31 -3 -7 -2 -12 2 -11 16 3 192 -79 203 -96 4
-5 14 -6 24 -3 9 4 14 3 11 -2 -8 -13 19 -33 57 -40 24 -6 31 -12 29 -26 -3
-16 -2 -17 12 -6 9 8 19 11 23 7 3 -3 1 -6 -5 -6 -7 0 -12 -5 -12 -11 0 -6 9
-8 21 -4 13 4 27 1 39 -10 10 -9 31 -20 46 -24 16 -4 28 -11 26 -16 -2 -4 14
-16 35 -26 23 -10 31 -18 20 -18 -21 -1 -65 19 -292 130 -158 77 -289 146
-332 174 -12 8 -44 27 -70 41 -132 72 -528 347 -688 477 -372 304 -756 734
-1013 1137 -137 213 -359 627 -442 820 -170 398 -209 505 -301 815 -166 560
-270 1161 -300 1743 -20 376 2 933 51 1332 50 401 136 814 240 1156 119 391
246 711 426 1074 239 484 487 868 812 1260 251 303 676 689 990 899 266 179
682 402 1047 564 791 349 1740 579 2580 626 208 12 646 12 845 1z m4255 -540
c3 -6 -1 -7 -9 -4 -18 7 -21 14 -7 14 6 0 13 -4 16 -10z m-6682 -262 c10 -38
-15 -71 -78 -105 -66 -35 -192 -79 -201 -70 -10 9 112 84 166 102 57 19 102
57 94 79 -3 9 -2 16 4 16 5 0 12 -10 15 -22z m6963 -5 c-7 -7 -26 7 -26 19 0
6 6 6 15 -2 9 -7 13 -15 11 -17z m44 2 c13 -14 21 -25 18 -25 -2 0 -15 11 -28
25 -13 14 -21 25 -18 25 2 0 15 -11 28 -25z m185 -166 c12 -14 4 -10 -18 9
-21 17 -42 32 -47 32 -6 0 -10 5 -10 11 0 13 48 -20 75 -52z m-4690 -114 c121
-8 238 -17 260 -20 22 -2 78 -9 125 -15 99 -12 171 -22 185 -26 10 -2 87 -16
190 -34 28 -4 95 -16 150 -24 55 -9 111 -21 125 -26 14 -5 54 -16 90 -24 36
-8 90 -21 120 -30 170 -48 277 -79 295 -86 11 -5 45 -16 75 -25 30 -10 77 -26
104 -36 27 -11 57 -19 68 -19 11 0 31 -9 45 -20 14 -11 40 -22 58 -26 18 -3
43 -15 54 -26 13 -12 29 -17 40 -13 11 3 22 1 26 -5 8 -12 122 -67 151 -72 10
-2 22 -10 26 -18 8 -17 11 -690 3 -690 -3 0 -51 23 -107 51 -282 142 -700 300
-1025 389 -307 83 -618 143 -913 177 -197 22 -906 26 -1095 5 -580 -63 -1085
-187 -1605 -392 -85 -34 -165 -64 -177 -67 l-23 -5 0 298 c0 271 4 326 23 326
19 0 47 12 47 20 0 5 3 7 8 4 14 -9 137 25 262 72 8 3 17 6 20 7 10 2 126 46
145 54 62 28 333 111 362 111 13 0 32 4 41 9 32 17 390 91 607 125 209 32 329
45 500 52 77 4 141 7 143 9 10 9 415 3 597 -10z m4875 -62 c0 -5 -20 7 -42 26
-10 9 -18 19 -18 23 0 5 14 -4 30 -19 17 -14 30 -28 30 -30z m-670 -428 c435
-374 756 -732 1058 -1183 491 -732 801 -1542 936 -2450 59 -393 70 -572 70
-1132 0 -461 -2 -539 -22 -740 -77 -768 -223 -1341 -508 -1997 -197 -451 -517
-953 -857 -1343 -135 -155 -494 -512 -643 -641 -205 -177 -255 -219 -262 -219
-4 0 -6 221 -4 492 l3 492 67 62 c189 172 500 551 724 879 425 626 727 1418
847 2231 70 471 80 1133 25 1624 -82 733 -269 1361 -582 1960 -41 80 -88 167
-104 193 -15 26 -28 50 -28 52 0 20 -261 420 -375 575 -161 220 -415 522 -524
624 l-31 30 0 333 c0 320 1 334 18 321 10 -7 97 -80 192 -163z m-7192 -387
l-3 -312 -122 -67 c-533 -290 -974 -653 -1337 -1102 -66 -81 -123 -147 -128
-147 -9 0 -15 389 -9 625 l3 150 57 64 c59 69 200 207 291 287 156 136 292
244 302 238 6 -4 8 -3 5 3 -8 13 75 73 103 73 12 0 19 4 16 9 -7 11 19 33 36
30 20 -5 59 21 52 33 -4 7 -3 8 4 4 18 -11 37 4 21 16 -11 7 -9 8 4 4 12 -4
38 6 70 27 77 50 143 87 231 130 80 39 156 84 233 138 23 16 44 29 47 29 8 0
101 64 104 73 2 4 8 7 13 7 6 0 8 -124 7 -312z m5529 149 c37 -25 95 -59 128
-76 33 -17 69 -37 80 -44 10 -6 49 -30 85 -52 36 -22 71 -45 78 -52 7 -7 24
-16 38 -19 13 -3 22 -10 19 -14 -3 -5 8 -11 25 -15 16 -4 30 -11 30 -16 0 -5
19 -21 43 -36 23 -16 44 -31 45 -36 2 -4 36 -26 75 -48 40 -23 81 -49 91 -58
16 -13 18 -13 11 -1 -8 13 -6 13 8 1 9 -7 15 -16 13 -20 -3 -4 9 -13 25 -20
16 -7 27 -16 24 -21 -3 -4 9 -13 26 -19 17 -6 33 -20 36 -31 4 -13 11 -19 20
-16 8 4 11 1 7 -5 -7 -12 33 -59 50 -59 17 0 148 -119 231 -211 8 -9 15 -20
15 -26 0 -15 37 -46 48 -39 6 3 13 -2 18 -12 4 -9 9 -181 11 -382 2 -201 4
-411 6 -468 1 -56 -1 -101 -5 -100 -3 2 -56 68 -116 148 -286 378 -650 711
-1107 1013 -71 48 -140 93 -152 102 l-23 16 0 348 c0 191 3 351 6 354 4 3 15
-4 25 -17 10 -13 49 -43 86 -69z m-2442 -121 c158 -19 353 -50 495 -77 254
-49 716 -184 737 -216 10 -17 13 -17 41 -2 30 17 60 11 48 -9 -8 -13 0 -18 44
-26 26 -5 31 -4 20 3 -9 7 -10 11 -3 11 7 0 16 -8 22 -17 5 -10 12 -15 16 -11
10 10 65 -12 65 -27 0 -7 21 -18 48 -25 53 -13 517 -245 544 -272 16 -16 17
-240 12 -3820 l-4 -3803 -23 -19 c-37 -31 -352 -180 -537 -254 -831 -332
-1752 -459 -2590 -356 -543 67 -1110 233 -1617 474 l-152 73 -5 41 c-3 22 -8
1794 -11 3937 l-5 3896 177 76 c232 99 352 144 553 207 385 119 808 200 1200
230 181 13 772 5 925 -14z m-3082 -763 c9 -211 22 -8053 14 -8053 -14 0 -308
177 -412 248 -338 230 -700 564 -984 907 -68 83 -144 171 -169 197 l-45 47 -2
2662 -1 2663 26 30 c14 17 73 94 130 171 317 429 564 682 925 952 141 105 481
330 501 332 7 1 13 -52 17 -156z m5587 -136 c213 -153 309 -234 491 -416 241
-242 393 -427 586 -716 52 -77 104 -153 116 -168 l22 -28 0 -2597 0 -2597 -27
-46 c-83 -141 -415 -498 -663 -714 -104 -91 -252 -207 -367 -288 -102 -72
-336 -227 -343 -227 -5 0 -1 7900 4 7919 1 5 43 -23 181 -122z m1499 -284 c1
15 4 15 21 5 11 -7 20 -19 20 -27 0 -8 3 -11 7 -8 7 8 32 -23 33 -41 0 -17 26
-43 34 -35 3 4 6 -1 6 -10 0 -9 5 -17 10 -17 6 0 10 -7 10 -15 0 -8 5 -15 11
-15 6 0 8 -7 5 -16 -3 -8 -2 -13 2 -10 5 3 22 -18 39 -47 111 -186 353 -647
353 -673 0 -7 3 -14 8 -16 7 -3 52 -90 52 -101 0 -3 15 -38 34 -79 56 -122 99
-242 200 -558 199 -624 268 -1357 191 -2026 -55 -472 -202 -1017 -396 -1459
-51 -117 -65 -148 -142 -305 -90 -182 -137 -267 -302 -540 -62 -102 -127 -210
-145 -240 -53 -88 -75 -120 -80 -120 -3 0 -5 78 -5 173 0 94 -3 204 -7 244
l-8 71 53 30 c71 40 98 75 156 196 394 822 558 1978 441 3109 -52 505 -140
900 -327 1472 -77 233 -104 308 -208 560 -32 77 -64 163 -71 190 -15 54 -19
360 -4 315 5 -17 8 -19 9 -7z m-9006 -106 c6 -17 0 -217 -9 -272 -16 -101 -75
-300 -194 -655 -149 -445 -192 -591 -250 -860 -94 -438 -140 -887 -140 -1355
1 -906 151 -1651 484 -2398 37 -82 81 -200 100 -262 24 -82 46 -132 79 -182
41 -62 46 -74 47 -133 5 -151 -1 -381 -9 -378 -28 11 -218 271 -341 468 -216
345 -386 714 -534 1162 -189 570 -276 1095 -276 1673 0 624 86 1182 274 1780
124 395 288 750 522 1133 72 117 113 174 178 248 40 45 60 54 69 31z m9071
-1110 c219 -655 307 -1129 338 -1811 36 -788 -93 -1625 -347 -2251 -78 -191
-84 -205 -95 -205 -7 0 -10 611 -11 1763 0 969 -4 2001 -8 2292 -5 292 -6 534
-4 538 3 5 9 5 13 0 4 -4 56 -151 114 -326z m-8995 -2064 c1 -1179 -3 -2143
-7 -2143 -21 0 -189 499 -252 750 -228 909 -226 2010 5 2920 36 142 159 504
228 670 10 24 10 24 18 -15 4 -22 8 -1004 8 -2182z m8854 -3138 c-3 -9 -8 -14
-10 -11 -3 3 -2 9 2 15 9 16 15 13 8 -4z m-8780 -342 l87 -28 1 -160 c1 -88 4
-171 8 -185 4 -14 4 -36 -1 -50 -8 -24 -8 -24 8 -5 15 20 16 19 50 -17 19 -21
36 -37 38 -35 3 1 71 -59 152 -133 81 -74 189 -169 240 -212 317 -262 774
-543 1171 -721 121 -55 360 -144 423 -159 l46 -11 1 -67 1 -68 -209 54 c-300
77 -401 119 -652 270 -264 159 -490 330 -806 612 -216 192 -493 466 -552 547
-170 233 -176 243 -184 348 l-7 87 49 -19 c26 -11 87 -32 136 -48z m-534 -287
c-3 -3 -11 5 -18 17 -13 21 -12 21 5 5 10 -10 16 -20 13 -22z m51 -56 c0 -5
-2 -10 -4 -10 -3 0 -8 5 -11 10 -3 6 -1 10 4 10 6 0 11 -4 11 -10z m151 -182
c17 -24 18 -29 6 -19 -18 14 -42 51 -33 51 3 0 15 -15 27 -32z m8829 -543 l0
-525 -61 -48 c-140 -109 -455 -315 -648 -425 -256 -145 -682 -350 -950 -457
-358 -142 -924 -300 -1336 -373 -485 -86 -691 -106 -1165 -114 -445 -7 -867
17 -1195 68 -205 32 -367 59 -410 70 -22 5 -51 11 -65 14 -14 2 -56 11 -95 20
-38 9 -101 22 -138 30 -38 8 -83 19 -100 24 -18 6 -88 24 -157 41 -69 17 -138
35 -155 40 -16 6 -77 24 -133 41 -72 22 -101 34 -93 42 7 7 20 6 41 -3 18 -7
51 -14 75 -14 41 -1 42 -2 22 -14 l-22 -13 23 4 c12 3 22 1 22 -5 0 -5 9 -6
20 -3 11 3 20 2 20 -3 0 -6 15 -10 33 -10 17 0 46 -7 62 -16 17 -9 44 -16 60
-16 17 0 41 -3 53 -7 18 -4 21 -8 10 -15 -9 -7 -2 -8 21 -4 19 3 39 2 45 -3
12 -10 228 -50 275 -52 23 0 24 -1 6 -9 -16 -7 -13 -9 18 -9 20 -1 37 -6 37
-11 0 -6 15 -8 40 -4 29 5 43 2 55 -10 10 -9 33 -16 56 -16 35 0 115 -9 217
-26 20 -3 30 -9 26 -16 -7 -11 31 -7 69 8 12 4 17 2 15 -7 -2 -10 7 -12 31
-10 18 1 31 -1 28 -6 -3 -4 15 -9 39 -10 25 -1 43 1 40 5 -3 5 34 3 82 -3 48
-6 107 -10 132 -9 25 2 89 5 143 7 55 3 112 1 129 -4 26 -7 31 -5 35 12 3 11
13 19 22 18 44 -4 101 2 101 11 0 6 -9 10 -20 10 -11 0 -20 4 -20 9 0 15 30
22 50 11 15 -8 21 -6 30 11 9 16 14 18 26 8 8 -6 14 -8 14 -3 0 5 6 0 12 -11
11 -19 11 -19 19 0 4 11 8 46 8 78 1 50 3 57 21 57 13 0 20 -7 20 -18 0 -10 6
-27 14 -37 13 -19 15 -17 21 18 7 34 10 37 41 37 l34 0 0 80 c0 47 4 80 10 80
6 0 10 18 10 40 0 22 -5 40 -11 40 -6 0 -9 18 -8 47 l3 47 -78 23 c-43 12 -85
28 -93 35 -8 7 -43 13 -77 14 -85 3 -96 5 -56 14 27 6 16 8 -50 10 -47 1 -93
1 -103 0 -11 -1 -21 7 -24 19 -3 11 -12 22 -22 24 -9 3 -2 5 16 6 17 0 34 -5
36 -11 4 -10 8 -10 15 1 5 7 18 11 28 7 39 -12 442 -16 646 -6 439 21 941 85
1308 166 135 30 443 118 585 168 460 159 1092 479 1480 749 253 176 545 415
659 539 39 43 72 78 74 78 1 0 2 -236 2 -525z m-1558 325 l-3 -141 -57 -37
c-100 -64 -484 -233 -717 -315 -608 -215 -1358 -329 -1955 -297 -354 19 -595
48 -885 105 -392 78 -813 218 -1177 392 -161 77 -153 63 -142 264 l7 129 31
-21 c71 -47 360 -174 577 -252 854 -310 1752 -383 2709 -222 352 59 742 170
1106 315 165 66 446 193 469 212 5 4 16 8 25 8 13 0 15 -19 12 -140z m-6317
-670 c3 -6 -1 -7 -9 -4 -18 7 -21 14 -7 14 6 0 13 -4 16 -10z m119 -75 c11 -8
16 -15 10 -15 -5 0 -18 7 -28 15 -11 8 -16 15 -10 15 5 0 18 -7 28 -15z m-99
-595 c13 -6 15 -9 5 -9 -8 0 -22 4 -30 9 -18 12 -2 12 25 0z m2933 -147 c-16
-2 -40 -2 -55 0 -16 2 -3 4 27 4 30 0 43 -2 28 -4z m-2403 -153 c4 -6 15 -8
26 -5 10 4 19 2 19 -4 0 -6 7 -8 15 -5 8 4 17 -1 21 -10 4 -11 13 -14 25 -11
12 4 21 1 25 -9 3 -9 14 -16 23 -16 9 0 25 -7 35 -15 11 -8 38 -15 60 -15 27
0 36 -3 27 -9 -9 -6 -1 -13 30 -24 24 -8 67 -23 94 -34 28 -10 55 -18 60 -18
6 -1 20 -6 32 -13 12 -7 30 -13 40 -15 10 -1 24 -6 31 -11 7 -4 25 -5 40 -1
25 6 26 5 11 -10 -14 -15 -22 -14 -90 8 -132 44 -354 129 -357 138 -2 5 -13 9
-24 9 -26 0 -168 60 -168 71 0 12 17 11 25 -1z m-515 -30 c0 -5 -4 -10 -10
-10 -5 0 -10 5 -10 10 0 6 5 10 10 10 6 0 10 -4 10 -10z m97 -37 c5 3 15 2 22
-2 10 -6 9 -10 -3 -14 -9 -4 -25 3 -39 16 -13 12 -15 16 -6 9 10 -8 22 -12 26
-9z m58 -23 c3 -5 -1 -10 -10 -10 -9 0 -13 5 -10 10 3 6 8 10 10 10 2 0 7 -4
10 -10z m110 -50 c3 -5 -4 -6 -15 -3 -11 3 -22 9 -25 13 -3 5 4 6 15 3 11 -3
22 -9 25 -13z m3195 -70 c0 -33 -3 -40 -20 -40 -17 0 -20 7 -20 40 0 33 3 40
20 40 17 0 20 -7 20 -40z m-3383 -286 c-3 -3 -12 -4 -19 -1 -8 3 -5 6 6 6 11
1 17 -2 13 -5z m503 -254 c0 -5 -2 -10 -4 -10 -3 0 -8 5 -11 10 -3 6 -1 10 4
10 6 0 11 -4 11 -10z m735 -50 c3 -5 1 -10 -4 -10 -6 0 -11 5 -11 10 0 6 2 10
4 10 3 0 8 -4 11 -10z m1535 -60 c0 -5 -7 -7 -15 -4 -8 4 -15 8 -15 10 0 2 7
4 15 4 8 0 15 -4 15 -10z"/>
<path d="M4753 6840 c0 -25 2 -35 4 -22 2 12 2 32 0 45 -2 12 -4 2 -4 -23z"/>
<path d="M4972 6670 c0 -14 2 -19 5 -12 2 6 2 18 0 25 -3 6 -5 1 -5 -13z"/>
<path d="M6685 14460 c-3 -5 -1 -10 4 -10 6 0 11 5 11 10 0 6 -2 10 -4 10 -3
0 -8 -4 -11 -10z"/>
<path d="M6625 14420 c-3 -5 1 -10 10 -10 9 0 13 5 10 10 -3 6 -8 10 -10 10
-2 0 -7 -4 -10 -10z"/>
<path d="M9869 13889 c-294 -10 -525 -38 -814 -100 -249 -53 -630 -160 -802
-226 l-43 -16 0 -3306 0 -3306 53 -18 c391 -137 584 -194 814 -241 396 -81
582 -101 953 -100 530 0 996 68 1485 216 225 68 558 202 577 232 4 6 8 1454 8
3218 0 2902 -1 3208 -16 3222 -8 9 -21 16 -28 16 -6 0 -104 34 -216 76 -468
172 -894 275 -1315 318 -181 19 -393 23 -656 15z m476 -219 c485 -31 931 -134
1410 -323 l110 -44 3 -3077 2 -3077 -72 -34 c-208 -95 -686 -225 -1014 -275
-563 -86 -1192 -68 -1719 51 -195 44 -505 133 -592 170 l-43 18 0 3155 c0
2995 1 3156 18 3164 25 14 267 85 424 126 487 125 1000 176 1473 146z"/>
<path d="M5690 6652 c0 -5 -18 -17 -40 -27 -41 -18 -48 -29 -29 -40 6 -4 8
-14 4 -22 -3 -9 -2 -25 2 -37 6 -19 8 -18 14 9 l6 30 8 -30 c5 -16 30 -50 57
-74 l48 -44 0 49 c0 27 3 59 6 72 5 16 2 22 -10 22 -19 0 -22 16 -4 22 7 3 -3
19 -25 42 -20 20 -37 33 -37 28z"/>
<path d="M5793 6430 c0 -30 2 -43 4 -27 2 15 2 39 0 55 -2 15 -4 2 -4 -28z"/>
<path d="M5840 6283 c0 -6 8 -17 18 -24 16 -13 16 -13 2 6 -8 11 -16 22 -17
24 -2 2 -3 0 -3 -6z"/>
<path d="M15010 15700 c0 -5 5 -10 11 -10 5 0 7 5 4 10 -3 6 -8 10 -11 10 -2
0 -4 -4 -4 -10z"/>
<path d="M15041 15674 c0 -11 3 -14 6 -6 3 7 2 16 -1 19 -3 4 -6 -2 -5 -13z"/>
<path d="M15460 15305 c13 -14 26 -25 28 -25 3 0 -5 11 -18 25 -13 14 -26 25
-28 25 -3 0 5 -11 18 -25z"/>
<path d="M17344 11049 c3 -17 6 -49 6 -71 0 -21 4 -37 9 -34 5 4 12 0 14 -6 3
-8 6 -6 6 5 1 9 -3 17 -9 17 -6 0 -10 27 -10 60 0 38 -4 60 -11 60 -8 0 -9
-11 -5 -31z"/>
<path d="M1654 9708 c-7 -11 15 -354 37 -578 45 -453 100 -782 198 -1185 246
-1000 556 -1721 1124 -2610 290 -454 667 -915 1112 -1361 264 -264 402 -388
690 -618 168 -136 263 -206 500 -372 188 -131 596 -370 855 -499 525 -263
1067 -464 1628 -604 580 -146 989 -209 1637 -252 94 -6 175 -12 180 -12 7 -1
11 207 13 605 l2 607 -32 5 c-18 3 -80 8 -137 11 -305 18 -846 102 -1176 184
-219 54 -745 220 -823 260 -9 5 -48 19 -87 31 -38 13 -74 26 -80 30 -5 4 -28
13 -50 20 -22 7 -68 26 -103 41 -34 16 -65 29 -67 29 -3 0 -98 45 -212 100
-161 78 -204 103 -193 111 11 8 9 9 -9 4 -17 -5 -22 -4 -16 5 5 9 4 11 -4 6
-7 -4 -53 17 -109 50 -53 31 -117 68 -142 82 -97 55 -150 93 -144 104 4 6 3 8
-4 4 -15 -9 -174 93 -165 107 3 6 1 7 -6 3 -11 -7 -74 37 -65 46 2 3 -2 5 -9
5 -32 0 -483 373 -481 398 1 7 -5 12 -13 11 -26 -2 -474 441 -626 619 -19 22
-59 69 -90 104 -31 36 -54 68 -51 73 3 5 1 7 -4 6 -11 -3 -234 272 -379 467
-75 102 -371 549 -424 640 -88 154 -163 294 -239 450 -127 259 -139 286 -250
555 -53 128 -156 429 -225 660 -21 68 -100 390 -128 520 -57 257 -73 347 -107
587 -16 119 -50 463 -50 516 l0 49 -636 -4 c-350 -1 -638 -6 -640 -10z"/>
<path d="M16900 7659 c0 -11 4 -18 10 -14 5 3 7 12 3 20 -7 21 -13 19 -13 -6z"/>
<path d="M5022 5026 c7 -8 15 -12 17 -11 5 6 -10 25 -20 25 -5 0 -4 -6 3 -14z"/>
<path d="M5196 4963 c-11 -11 -6 -23 9 -23 8 0 15 4 15 9 0 13 -16 22 -24 14z"/>
<path d="M5280 4890 c0 -5 5 -10 11 -10 5 0 7 5 4 10 -3 6 -8 10 -11 10 -2 0
-4 -4 -4 -10z"/>
<path d="M5280 4850 c0 -5 14 -10 31 -10 17 0 28 4 24 10 -3 6 -17 10 -31 10
-13 0 -24 -4 -24 -10z"/>
<path d="M5250 4796 c0 -2 7 -7 16 -10 8 -3 12 -2 9 4 -6 10 -25 14 -25 6z"/>
<path d="M5436 4735 c-3 -8 -1 -15 4 -15 6 0 10 7 10 15 0 8 -2 15 -4 15 -2 0
-6 -7 -10 -15z"/>
<path d="M5342 4706 c7 -8 15 -12 17 -11 5 6 -10 25 -20 25 -5 0 -4 -6 3 -14z"/>
<path d="M5490 4710 c0 -5 6 -10 14 -10 8 0 16 -6 19 -12 2 -7 8 -10 12 -6 9
8 -18 38 -34 38 -6 0 -11 -4 -11 -10z"/>
<path d="M5601 4662 c-1 -9 -15 -11 -56 -6 -55 7 -64 2 -44 -26 8 -11 12 -12
16 -2 7 18 20 15 26 -8 6 -25 35 -26 44 -2 4 9 11 20 16 23 5 4 7 13 4 20 -4
10 -6 10 -6 1z"/>
<path d="M5770 4585 c7 -8 20 -15 28 -15 13 0 12 3 -4 15 -25 19 -40 19 -24 0z"/>
<path d="M6105 4441 c3 -6 -2 -14 -11 -19 -11 -6 -7 -9 18 -9 18 0 27 2 20 5
-6 2 -10 7 -7 12 3 4 -2 11 -11 14 -8 3 -12 2 -9 -3z"/>
<path d="M6250 4366 c0 -2 7 -7 16 -10 8 -3 12 -2 9 4 -6 10 -25 14 -25 6z"/>
<path d="M5865 4220 c3 -5 10 -10 16 -10 5 0 9 5 9 10 0 6 -7 10 -16 10 -8 0
-12 -4 -9 -10z"/>
<path d="M7085 3490 c-3 -5 -1 -10 4 -10 6 0 11 5 11 10 0 6 -2 10 -4 10 -3 0
-8 -4 -11 -10z"/>
<path d="M7533 3445 c-7 -8 -13 -21 -13 -30 0 -9 -11 -27 -25 -40 -17 -15 -22
-26 -15 -30 7 -4 17 -2 23 4 6 6 19 11 29 11 14 0 18 8 18 40 0 29 4 40 15 40
8 0 15 5 15 10 0 15 -33 11 -47 -5z"/>
</g>
</svg>
